Coordinates
version=1
nRows=14
nColumns=24
inDegrees=yes

Units are S.I. units (second, meters, Newtons, ...)
Angles are in degrees.

endheader
time	pelvis_tilt	pelvis_list	pelvis_rotation	pelvis_tx	pelvis_ty	pelvis_tz	hip_flexion_r	hip_adduction_r	hip_rotation_r	knee_angle_r	ankle_angle_r	subtalar_angle_r	mtp_angle_r	hip_flexion_l	hip_adduction_l	hip_rotation_l	knee_angle_l	ankle_angle_l	subtalar_angle_l	mtp_angle_l	lumbar_extension	lumbar_bending	lumbar_rotation
      0.69983333	     -1.97553557	     -4.01068031	      3.46517193	     -0.40438300	      1.00890260	      0.28447612	      7.94701694	      8.13469198	      1.29244669	    -17.88534993	      9.33355538	    -12.50106775	      4.36823828	     14.63981449	     -5.96017673	      1.07802987	    -66.70969842	     -8.55272262	      2.25745536	     11.35186420	    -11.13165658	     11.57205095	     -2.55144242
      0.70400000	     -1.91190365	     -3.85500458	      3.43154802	     -0.39953064	      1.00989573	      0.28461475	      7.37308764	      8.01615624	      1.43092112	    -17.46508922	      9.14706790	    -12.70321891	      4.35706219	     14.98112979	     -5.79202990	      1.07910926	    -66.50767971	     -7.77150162	      1.82303816	     11.27443290	    -11.28942649	     11.26389897	     -2.09378040
      0.70816667	     -1.88798429	     -3.71762078	      3.38411392	     -0.39466985	      1.01080475	      0.28475493	      6.85253232	      7.90972063	      1.55492848	    -17.06554977	      8.97659658	    -12.83854915	      4.35161863	     15.35883298	     -5.64881565	      1.05878217	    -66.26439568	     -6.92634644	      1.44582348	     11.18611154	    -11.37321009	     11.01745815	     -1.77990453
      0.71233333	     -1.86993142	     -3.56755861	      3.33115424	     -0.38980403	      1.01172219	      0.28488159	      6.33844562	      7.78447217	      1.67387759	    -16.66734554	      8.80282881	    -12.95422319	      4.35067957	     15.72670165	     -5.48877112	      1.02819697	    -65.95279509	     -6.08712123	      1.05991580	     11.08994055	    -11.44374156	     10.76065212	     -1.49181059
      0.71650000	     -1.89450142	     -3.39534400	      3.27040882	     -0.38496227	      1.01257216	      0.28496899	      5.90280408	      7.62004124	      1.73091947	    -16.33989785	      8.66714253	    -12.95079757	      4.34990569	     16.12837094	     -5.29494290	      0.98823084	    -65.58492678	     -5.23049713	      0.66517854	     11.06308541	    -11.44290739	     10.52064185	     -1.37583234
      0.72066667	     -1.82928624	     -3.23690903	      3.20520798	     -0.38007168	      1.01359209	      0.28510707	      5.31217564	      7.48858144	      1.89874402	    -15.88489210	      8.44033227	    -13.12438467	      4.35438791	     16.40813343	     -5.13329909	      0.93270734	    -65.13429249	     -4.42570194	      0.31112730	     10.94623965	    -11.59534087	     10.21611450	     -0.93070493
      0.72483333	     -1.80218218	     -3.08934151	      3.12848501	     -0.37519830	      1.01452607	      0.28522700	      4.78826170	      7.35797993	      2.03025535	    -15.47954364	      8.22032863	    -13.22548636	      4.36798159	     16.72389552	     -4.98402590	      0.86041294	    -64.64297264	     -3.59335883	     -0.03187864	     10.79594271	    -11.67786920	      9.96378882	     -0.63080897
      0.72900000	     -1.77756589	     -2.91662876	      3.05873904	     -0.37034037	      1.01545126	      0.28530870	      4.27846689	      7.19203229	      2.13251409	    -15.09950361	      8.01885283	    -13.28334009	      4.38339448	     17.02695126	     -4.79390989	      0.80115811	    -64.08668675	     -2.79060387	     -0.37702581	     10.65681747	    -11.75932511	      9.68375471	     -0.37615529
      0.73316667	     -1.73536736	     -2.75112467	      2.98050772	     -0.36546385	      1.01641266	      0.28538883	      3.74206372	      7.03270402	      2.25150749	    -14.70096476	      7.79313116	    -13.34638036	      4.40329588	     17.29235820	     -4.61625017	      0.73034943	    -63.46618099	     -2.00809499	     -0.70244334	     10.49801619	    -11.86265507	      9.42339460	     -0.09655655
      0.73733333	     -1.70035184	     -2.60303204	      2.88189365	     -0.36059988	      1.01733255	      0.28548087	      3.22103925	      6.89015898	      2.40067891	    -14.31348463	      7.55090800	    -13.40365507	      4.44552391	     17.55439521	     -4.46512403	      0.63442952	    -62.79980954	     -1.23082251	     -1.03655593	     10.21969631	    -11.96584069	      9.18527014	      0.21190644
      0.74150000	     -1.66310217	     -2.42678027	      2.82422690	     -0.35570675	      1.01826246	      0.28549288	      2.69707230	      6.70636404	      2.46370742	    -13.92695474	      7.33135447	    -13.43130665	      4.47213646	     17.79955116	     -4.26188352	      0.58355856	    -62.06447127	     -0.52232034	     -1.33343746	     10.04469104	    -12.04174317	      8.90255046	      0.41434529
      0.74566667	     -1.63561676	     -2.28242971	      2.72257564	     -0.35084361	      1.01914625	      0.28554763	      2.19261443	      6.55913008	      2.60742302	    -13.55153372	      7.07383939	    -13.47809481	      4.52929430	     18.04229170	     -4.10558132	      0.49254806	    -61.28888304	      0.19069218	     -1.65782007	      9.71513342	    -12.14088685	      8.67793154	      0.72850783
      0.74983333	     -1.59767719	     -2.10048692	      2.66401591	     -0.34594289	      1.02004793	      0.28552659	      1.67874224	      6.36153000	      2.65527722	    -13.18649888	      6.86052492	    -13.46961092	      4.56520706	     18.25349668	     -3.88901883	      0.44537836	    -60.43574562	      0.82199519	     -1.94406406	      9.51161521	    -12.21011844	      8.39815015	      0.90578763
      0.75400000	     -1.54356388	     -1.95117695	      2.56626275	     -0.34107702	      1.02093785	      0.28553172	      1.15518779	      6.19975881	      2.77604348	    -12.82684576	      6.59665474	    -13.47984069	      4.63634162	     18.43508825	     -3.71952935	      0.36279095	    -59.54686484	      1.46155786	     -2.26375285	      9.14551082	    -12.34053174	      8.17580589	      1.19245411
